<?xml version="1.0" encoding="UTF-8"?>
<svg xmlns="http://www.w3.org/2000/svg" xmlns:xlink="http://www.w3.org/1999/xlink" width="35pt" height="35pt" viewBox="0 0 35 35" version="1.1">
<g id="surface1">
<path style=" stroke:none;fill-rule:nonzero;fill:#3F51B5;fill-opacity:1;" d="M 30.625 26.980469 C 30.625 28.992188 28.992188 30.625 26.980469 30.625 L 8.019531 30.625 C 6.007813 30.625 4.375 28.992188 4.375 26.980469 L 4.375 8.019531 C 4.375 6.007813 6.007813 4.375 8.019531 4.375 L 26.980469 4.375 C 28.992188 4.375 30.625 6.007813 30.625 8.019531 Z "/>
<path style=" stroke:none;fill-rule:nonzero;fill:#FFFFFF;fill-opacity:1;" d="M 25.058594 18.230469 L 22.605469 18.230469 L 22.605469 27.707031 L 18.957031 27.707031 L 18.957031 18.230469 L 16.769531 18.230469 L 16.769531 15.3125 L 18.957031 15.3125 L 18.957031 13.554688 C 18.960938 10.996094 20.023438 9.480469 23.035156 9.480469 L 25.519531 9.480469 L 25.519531 12.394531 L 23.851563 12.394531 C 22.679688 12.394531 22.605469 12.832031 22.605469 13.652344 L 22.605469 15.3125 L 25.519531 15.3125 Z "/>
</g>
</svg>
