<?xml version="1.0" encoding="UTF-8"?>
<svg xmlns="http://www.w3.org/2000/svg" xmlns:xlink="http://www.w3.org/1999/xlink" width="35pt" height="35pt" viewBox="0 0 35 35" version="1.1">
<g id="surface1">
<path style=" stroke:none;fill-rule:nonzero;fill:#FFCC80;fill-opacity:1;" d="M 4.375 13.125 L 4.375 26.980469 C 4.375 28.992188 6.007813 30.625 8.019531 30.625 L 26.980469 30.625 C 28.992188 30.625 30.625 28.992188 30.625 26.980469 L 30.625 13.125 Z "/>
<path style=" stroke:none;fill-rule:nonzero;fill:#795548;fill-opacity:1;" d="M 30.625 13.125 L 30.625 8.019531 C 30.625 6.007813 28.992188 4.375 26.980469 4.375 L 8.019531 4.375 C 6.007813 4.375 4.375 6.007813 4.375 8.019531 L 4.375 13.125 Z "/>
<path style=" stroke:none;fill-rule:nonzero;fill:#37474F;fill-opacity:1;" d="M 23.332031 18.230469 C 23.332031 21.449219 20.722656 24.0625 17.5 24.0625 C 14.277344 24.0625 11.667969 21.449219 11.667969 18.230469 C 11.667969 15.007813 14.277344 12.394531 17.5 12.394531 C 20.722656 12.394531 23.332031 15.007813 23.332031 18.230469 Z "/>
<path style=" stroke:none;fill-rule:nonzero;fill:#FFF3E0;fill-opacity:1;" d="M 17.5 24.792969 C 13.882813 24.792969 10.9375 21.847656 10.9375 18.230469 C 10.9375 14.609375 13.882813 11.667969 17.5 11.667969 C 21.117188 11.667969 24.0625 14.609375 24.0625 18.230469 C 24.0625 21.847656 21.117188 24.792969 17.5 24.792969 Z M 17.5 13.125 C 14.683594 13.125 12.394531 15.414063 12.394531 18.230469 C 12.394531 21.042969 14.683594 23.332031 17.5 23.332031 C 20.3125 23.332031 22.605469 21.042969 22.605469 18.230469 C 22.605469 15.414063 20.3125 13.125 17.5 13.125 Z "/>
<path style=" stroke:none;fill-rule:nonzero;fill:#546E7A;fill-opacity:1;" d="M 21.144531 18.230469 C 21.144531 20.242188 19.511719 21.875 17.5 21.875 C 15.488281 21.875 13.855469 20.242188 13.855469 18.230469 C 13.855469 16.214844 15.488281 14.582031 17.5 14.582031 C 19.511719 14.582031 21.144531 16.214844 21.144531 18.230469 Z "/>
<path style=" stroke:none;fill-rule:nonzero;fill:#BBDEFB;fill-opacity:1;" d="M 17.5 16.769531 C 17.5 17.578125 16.847656 18.230469 16.042969 18.230469 C 15.234375 18.230469 14.582031 17.578125 14.582031 16.769531 C 14.582031 15.964844 15.234375 15.3125 16.042969 15.3125 C 16.847656 15.3125 17.5 15.964844 17.5 16.769531 Z "/>
<path style=" stroke:none;fill-rule:nonzero;fill:#F44336;fill-opacity:1;" d="M 5.832031 5.121094 L 5.832031 13.125 L 7.292969 13.125 L 7.292969 4.449219 C 6.75 4.558594 6.257813 4.796875 5.832031 5.121094 Z "/>
<path style=" stroke:none;fill-rule:nonzero;fill:#FFEB3B;fill-opacity:1;" d="M 8.019531 4.375 C 7.769531 4.375 7.527344 4.402344 7.292969 4.449219 L 7.292969 13.125 L 8.75 13.125 L 8.75 4.375 Z "/>
<path style=" stroke:none;fill-rule:nonzero;fill:#8BC34A;fill-opacity:1;" d="M 8.75 4.375 L 10.207031 4.375 L 10.207031 13.125 L 8.75 13.125 Z "/>
<path style=" stroke:none;fill-rule:nonzero;fill:#2196F3;fill-opacity:1;" d="M 10.207031 4.375 L 11.667969 4.375 L 11.667969 13.125 L 10.207031 13.125 Z "/>
<path style=" stroke:none;fill-rule:nonzero;fill:#3E2723;fill-opacity:1;" d="M 23.332031 6.5625 L 27.707031 6.5625 L 27.707031 10.9375 L 23.332031 10.9375 Z "/>
<path style=" stroke:none;fill-rule:nonzero;fill:#3E2723;fill-opacity:1;" d="M 11.667969 12.761719 C 11.667969 13.363281 11.175781 13.855469 10.574219 13.855469 L 6.925781 13.855469 C 6.324219 13.855469 5.832031 13.363281 5.832031 12.761719 C 5.832031 12.15625 6.324219 11.667969 6.925781 11.667969 L 10.574219 11.667969 C 11.175781 11.667969 11.667969 12.15625 11.667969 12.761719 Z "/>
</g>
</svg>
