<?xml version="1.0" encoding="UTF-8"?>
<svg xmlns="http://www.w3.org/2000/svg" xmlns:xlink="http://www.w3.org/1999/xlink" width="20pt" height="20pt" viewBox="0 0 20 20" version="1.1">
<g id="surface1">
<path style=" stroke:none;fill-rule:nonzero;fill:#FFFFFF;fill-opacity:1;" d="M 10 0.398438 C 6.472656 0.398438 3.601563 3.273438 3.601563 6.800781 C 3.601563 12.445313 9.453125 19.179688 9.699219 19.460938 C 9.777344 19.550781 9.882813 19.601563 10 19.601563 C 10.125 19.59375 10.222656 19.550781 10.300781 19.460938 C 10.546875 19.171875 16.398438 12.324219 16.398438 6.800781 C 16.398438 3.273438 13.527344 0.398438 10 0.398438 Z M 10 4.800781 C 11.324219 4.800781 12.398438 5.875 12.398438 7.199219 C 12.398438 8.523438 11.324219 9.601563 10 9.601563 C 8.675781 9.601563 7.601563 8.523438 7.601563 7.199219 C 7.601563 5.875 8.675781 4.800781 10 4.800781 Z "/>
</g>
</svg>
