<?xml version="1.0" encoding="UTF-8"?>
<svg xmlns="http://www.w3.org/2000/svg" xmlns:xlink="http://www.w3.org/1999/xlink" width="20pt" height="20pt" viewBox="0 0 20 20" version="1.1">
<g id="surface1">
<path style=" stroke:none;fill-rule:nonzero;fill:#FFFFFF;fill-opacity:1;" d="M 17.21875 13.867188 C 16.03125 12.847656 14.820313 12.230469 13.644531 13.25 L 12.941406 13.859375 C 12.429688 14.308594 11.472656 16.394531 7.78125 12.140625 C 4.085938 7.898438 6.28125 7.238281 6.800781 6.796875 L 7.507813 6.179688 C 8.675781 5.164063 8.234375 3.878906 7.390625 2.558594 L 6.882813 1.757813 C 6.035156 0.441406 5.109375 -0.421875 3.9375 0.59375 L 3.300781 1.148438 C 2.78125 1.523438 1.335938 2.753906 0.984375 5.085938 C 0.558594 7.882813 1.894531 11.085938 4.953125 14.601563 C 8.003906 18.121094 10.996094 19.890625 13.828125 19.859375 C 16.179688 19.832031 17.605469 18.570313 18.050781 18.109375 L 18.683594 17.554688 C 19.855469 16.539063 19.128906 15.5 17.9375 14.484375 Z "/>
</g>
</svg>
