<?xml version="1.0" encoding="UTF-8"?>
<svg xmlns="http://www.w3.org/2000/svg" xmlns:xlink="http://www.w3.org/1999/xlink" width="35pt" height="35pt" viewBox="0 0 35 35" version="1.1">
<g id="surface1">
<path style=" stroke:none;fill-rule:nonzero;fill:#03A9F4;fill-opacity:1;" d="M 30.625 9.0625 C 29.660156 9.488281 28.621094 9.773438 27.527344 9.910156 C 28.640625 9.25 29.496094 8.195313 29.898438 6.949219 C 28.859375 7.5625 27.703125 8.011719 26.476563 8.246094 C 25.496094 7.207031 24.097656 6.5625 22.550781 6.5625 C 19.574219 6.5625 17.164063 8.953125 17.164063 11.898438 C 17.164063 12.316406 17.210938 12.722656 17.304688 13.117188 C 12.828125 12.894531 8.859375 10.765625 6.203125 7.535156 C 5.738281 8.324219 5.472656 9.25 5.472656 10.222656 C 5.472656 12.078125 6.421875 13.707031 7.871094 14.667969 C 6.988281 14.640625 6.15625 14.398438 5.429688 14.003906 C 5.429688 14.019531 5.429688 14.042969 5.429688 14.066406 C 5.429688 16.65625 7.285156 18.8125 9.746094 19.300781 C 9.296875 19.425781 8.820313 19.492188 8.332031 19.492188 C 7.984375 19.492188 7.644531 19.453125 7.316406 19.394531 C 8 21.511719 9.992188 23.058594 12.347656 23.105469 C 10.503906 24.53125 8.179688 25.390625 5.65625 25.390625 C 5.222656 25.390625 4.792969 25.363281 4.371094 25.3125 C 6.757813 26.824219 9.589844 27.707031 12.628906 27.707031 C 22.535156 27.707031 27.953125 19.574219 27.953125 12.515625 C 27.953125 12.285156 27.949219 12.054688 27.9375 11.828125 C 28.992188 11.082031 29.90625 10.140625 30.625 9.0625 "/>
</g>
</svg>
